<svg version="1.1" id="Capa_1" xmlns="http://www.w3.org/2000/svg" xmlns:xlink="http://www.w3.org/1999/xlink" x="0px" y="0px" viewBox="0 0 496 496" style="enable-background:new 0 0 496 496;" xml:space="preserve">
<g>
<g>
<g>
<path d="M0,407.998c0,22.056,17.944,40,40,40h96v32h-32v16h288v-16h-32v-32h96c22.056,0,40-17.944,40-40v-24H0V407.998z
				 M344,479.998H152v-32h192V479.998z M16,399.998h464v8c0,13.232-10.768,24-24,24H40c-13.232,0-24-10.768-24-24V399.998z" id="id_101" style="fill: rgb(40, 148, 38);"></path>
<path d="M16,119.998c0-13.232,10.768-24,24-24h128v-16H40c-22.056,0-40,17.944-40,40v248h16V119.998z" id="id_102" style="fill: rgb(38, 150, 36);"></path>
<path d="M456,79.998H328v16h128c13.232,0,24,10.768,24,24v248h16v-248C496,97.942,478.056,79.998,456,79.998z" id="id_103" style="fill: rgb(37, 148, 35);"></path>
<polygon points="400,351.998 96,351.998 96,127.998 168,127.998 168,111.998 80,111.998 80,367.998 416,367.998 416,111.998 
				328,111.998 328,127.998 400,127.998 			" id="id_104" style="fill: rgb(43, 163, 41);"></polygon>
<path d="M216,149.766v26.232h64v-23.536c0-16.8,6.352-33.752,18.368-49.032C307.288,92.078,312,78.446,312,63.998
				c0-17.296-6.792-33.504-19.12-45.632s-28.6-18.528-45.96-18.36c-33.464,0.552-61.672,28.208-62.872,61.64
				c-0.56,15.632,4.584,30.864,14.496,42.904C209.96,118.43,216,134.062,216,149.766z M264,152.462v7.536h-32v-8h32.024
				C264.024,152.15,264,152.302,264,152.462z M200.04,62.222c0.896-25.064,22.048-45.8,47.144-46.216
				c12.888-0.224,25.224,4.672,34.472,13.768S296,51.022,296,63.998c0,10.832-3.528,21.04-10.208,29.536
				c-10.408,13.24-17.192,27.68-20.12,42.464H256v-40h-16v40h-9.256c-2.608-14.64-9.328-28.824-19.856-41.624
				C203.464,85.358,199.608,73.942,200.04,62.222z" id="id_105" style="fill: rgb(34, 153, 32);"></path>
<path d="M272,183.998h-16c0,4.408-3.592,8-8,8c-4.408,0-8-3.592-8-8h-16c0,13.232,10.768,24,24,24S272,197.23,272,183.998z" id="id_106" style="fill: rgb(33, 153, 31);"></path>
<rect x="240" y="63.998" width="16" height="16" id="id_107" style="fill: rgb(41, 161, 39);"></rect>
<path d="M202.28,179.214C190.496,191.246,184,207.15,184,223.998c0,35.288,28.712,64,64,64c35.288,0,64-28.712,64-64
				c0-17.328-6.816-33.56-19.184-45.688l-11.2,11.424C290.888,198.83,296,210.998,296,223.998c0,26.472-21.528,48-48,48
				s-48-21.528-48-48c0-12.64,4.864-24.568,13.712-33.592L202.28,179.214z" id="id_108" style="fill: rgb(32, 150, 30);"></path>
<path d="M360,254.246V193.75l-23.096-5.776c-0.728-1.808-1.52-3.592-2.368-5.352l-14.432,6.912
				c1.216,2.544,2.312,5.16,3.256,7.84l1.432,4.064l19.208,4.8v35.504l-19.208,4.8l-1.432,4.064
				c-0.944,2.688-2.032,5.304-3.256,7.856l-1.848,3.872l10.184,16.976l-25.104,25.112l-16.984-10.184l-3.88,1.856
				c-2.544,1.216-5.168,2.304-7.856,3.256l-4.064,1.448l-4.8,19.2h-35.504l-4.8-19.2l-4.048-1.432
				c-2.688-0.952-5.312-2.04-7.856-3.256l-3.88-1.856l-16.984,10.184l-29.52-29.52l-11.312,11.312l38.352,38.352l20.424-12.24
				c0.456,0.184,0.912,0.376,1.368,0.56l5.76,23.096h60.496l5.776-23.104c0.464-0.184,0.912-0.376,1.368-0.56l20.424,12.24
				l42.768-42.768l-12.248-20.424c0.192-0.456,0.384-0.912,0.568-1.368L360,254.246z" id="id_109" style="fill: rgb(41, 150, 39);"></path>
<path d="M147.424,166.198l12.248,20.424c-0.192,0.456-0.384,0.912-0.568,1.368L136,193.75v60.496l23.096,5.776
				c0.728,1.792,1.52,3.576,2.36,5.344l14.44-6.888c-1.224-2.56-2.312-5.168-3.256-7.856l-1.432-4.064L152,241.75v-35.504
				l19.208-4.8l1.432-4.064c0.944-2.688,2.032-5.296,3.256-7.84l1.856-3.88l-10.184-16.984l29.52-29.52l-11.312-11.312
				L147.424,166.198z" id="id_110" style="fill: rgb(38, 156, 36);"></path>
<rect x="297.527" y="142.473" transform="matrix(-0.7071 -0.7071 0.7071 -0.7071 442.4732 484.2244)" width="47.992" height="16" id="id_111" style="fill: rgb(44, 166, 42);"></rect>
</g>
</g>
</g>
<g>
</g>
<g>
</g>
<g>
</g>
<g>
</g>
<g>
</g>
<g>
</g>
<g>
</g>
<g>
</g>
<g>
</g>
<g>
</g>
<g>
</g>
<g>
</g>
<g>
</g>
<g>
</g>
<g>
</g>
</svg>