<svg version="1.1" xmlns="http://www.w3.org/2000/svg" xmlns:xlink="http://www.w3.org/1999/xlink" x="0px" y="0px" width="512px" height="512px" viewBox="0 0 512 512" style="enable-background:new 0 0 512 512;" xml:space="preserve">
<g id="D_-_158_x2C__Barcode_x2C__product_x2C__search">
<g>
<path d="M26,16c-5.523,0-10,4.477-10,10v290c0,5.522,4.477,10,10,10s10-4.478,10-10V26C36,20.477,31.523,16,26,16z" id="id_101" style="fill: rgb(43, 168, 73);"></path>
<path d="M26,335.999c-5.523,0-10,4.478-10,10v0.625c0,5.522,4.477,10,10,10s10-4.478,10-10v-0.625
			C36,340.477,31.523,335.999,26,335.999z" id="id_102" style="fill: rgb(43, 171, 73);"></path>
<path d="M76,16c-5.523,0-10,4.477-10,10v290c0,5.522,4.477,10,10,10s10-4.478,10-10V26C86,20.477,81.523,16,76,16z" id="id_103" style="fill: rgb(47, 168, 75);"></path>
<path d="M76,335.999c-5.523,0-10,4.478-10,10v0.625c0,5.522,4.477,10,10,10s10-4.478,10-10v-0.625
			C86,340.477,81.523,335.999,76,335.999z" id="id_104" style="fill: rgb(45, 163, 73);"></path>
<path d="M136,206V26c0-5.523-4.477-10-10-10s-10,4.477-10,10v180c0,5.523,4.477,10,10,10S136,211.522,136,206z" id="id_105" style="fill: rgb(44, 163, 72);"></path>
<path d="M385.999,325.999c5.523,0,10-4.478,10-10V26c0-5.523-4.477-10-10-10c-5.522,0-10,4.477-10,10v290
			C375.999,321.521,380.477,325.999,385.999,325.999z" id="id_106" style="fill: rgb(42, 156, 69);"></path>
<path d="M385.999,356.624c5.523,0,10-4.478,10-10v-0.625c0-5.522-4.477-10-10-10c-5.522,0-10,4.478-10,10v0.625
			C375.999,352.146,380.477,356.624,385.999,356.624z" id="id_107" style="fill: rgb(47, 168, 75);"></path>
<path d="M435.999,325.999c5.523,0,10-4.478,10-10V26c0-5.523-4.477-10-10-10c-5.522,0-10,4.477-10,10v290
			C425.999,321.521,430.477,325.999,435.999,325.999z" id="id_108" style="fill: rgb(51, 176, 80);"></path>
<path d="M435.999,356.624c5.523,0,10-4.478,10-10v-0.625c0-5.522-4.477-10-10-10c-5.522,0-10,4.478-10,10v0.625
			C425.999,352.146,430.477,356.624,435.999,356.624z" id="id_109" style="fill: rgb(52, 179, 82);"></path>
<path d="M485.999,16c-5.522,0-10,4.477-10,10v290c0,5.522,4.478,10,10,10c5.523,0,10-4.478,10-10V26
			C495.999,20.477,491.522,16,485.999,16z" id="id_110" style="fill: rgb(54, 186, 85);"></path>
<path d="M485.999,335.999c-5.522,0-10,4.478-10,10v0.625c0,5.522,4.478,10,10,10c5.523,0,10-4.478,10-10v-0.625
			C495.999,340.477,491.522,335.999,485.999,335.999z" id="id_111" style="fill: rgb(59, 189, 89);"></path>
<path d="M491.913,477.935L341.961,367.97c30.811-40.979,32.033-96.77,3.567-138.938c0.896-2.82,0.295,9.568,0.471-203.032
			c0-5.523-4.477-10-10-10c-5.522,0-10,4.477-10,10v180.64c-8.919-7.993-19.035-14.674-30.046-19.735
			c0.071-0.779,0.032-40.457,0.046-160.905c0-5.523-4.477-10-10-10c-5.522,0-10,4.477-10,10v153.797
			c-12.954-3.347-26.435-4.501-39.999-3.377V26c0-5.523-4.477-10-10-10s-10,4.477-10,10v153.797
			c-10.641,2.749-20.712,6.927-30,12.312V26c0-5.523-4.477-10-10-10s-10,4.477-10,10c0.004,40.179-0.017,179.814,0.031,180.612
			C141.479,228.6,126,260.523,126,295.999c0,66.168,53.832,120,120,120c32.036,0,61.181-12.62,82.724-33.148
			c1.256,1.331-8.522-6.12,151.362,111.213c4.463,3.272,10.718,2.294,13.978-2.15C497.329,487.459,496.366,481.201,491.913,477.935z
			 M246,395.999c-55.14,0-100-44.859-100-100c0-55.14,44.86-100,100-100c55.14,0,99.999,44.86,99.999,100
			C345.999,351.14,301.14,395.999,246,395.999z" id="id_112" style="fill: rgb(55, 189, 86);"></path>
</g>
</g>
<g id="Layer_1">
</g>
</svg>