<svg width="64" height="64" viewBox="0 0 64 64" fill="none" xmlns="http://www.w3.org/2000/svg">
<path d="M7 21H13V15L21 7H26V5C25.9984 4.47005 25.7872 3.96227 25.4125 3.58753C25.0377 3.2128 24.5299 3.00158 24 3H9C8.47005 3.00158 7.96227 3.2128 7.58753 3.58753C7.2128 3.96227 7.00158 4.47005 7 5V21Z" fill="#e6ebe7" id="id_101"></path>
<path d="M57 21V17C56.9984 16.4701 56.7872 15.9623 56.4125 15.5875C56.0377 15.2128 55.5299 15.0016 55 15H51V21H57Z" fill="#f5f5f5" id="id_102"></path>
<path d="M58.678 21H5.32198C5.03392 20.9999 4.74924 21.062 4.48742 21.1822C4.22559 21.3023 3.99281 21.4775 3.80498 21.6959C3.61715 21.9143 3.47872 22.1707 3.39916 22.4476C3.31959 22.7244 3.30077 23.0152 3.34398 23.3L8.74398 59.3C8.81576 59.7731 9.05482 60.2049 9.41775 60.5168C9.78068 60.8287 10.2434 61.0002 10.722 61H53.278C53.7564 60.9999 54.2189 60.8284 54.5816 60.5165C54.9443 60.2046 55.1832 59.773 55.255 59.3L60.655 23.3C60.6982 23.0153 60.6794 22.7246 60.5999 22.4478C60.5204 22.171 60.382 21.9147 60.1943 21.6963C60.0066 21.4779 59.7739 21.3026 59.5122 21.1825C59.2505 21.0623 58.966 21.0001 58.678 21V21Z" fill="#2abf4d" id="id_103"></path>
<path d="M21 7L13 15H21V7Z" fill="#f5faf6" id="id_104"></path>
<path d="M18.016 58H12.44C12.2006 57.9998 11.9692 57.9136 11.7879 57.7573C11.6066 57.601 11.4874 57.3848 11.452 57.148L10.7 52.127C10.6803 51.9971 10.6863 51.8646 10.7179 51.7371C10.7494 51.6096 10.8057 51.4895 10.8836 51.3837C10.9615 51.278 11.0595 51.1886 11.1719 51.1207C11.2844 51.0528 11.4091 51.0077 11.539 50.988C11.6688 50.9683 11.8013 50.9744 11.9289 51.0059C12.0564 51.0374 12.1765 51.0937 12.2822 51.1716C12.388 51.2495 12.4774 51.3475 12.5453 51.4599C12.6132 51.5724 12.6583 51.6971 12.678 51.827L13.3 56H18.014C18.2792 56 18.5335 56.1054 18.7211 56.2929C18.9086 56.4804 19.014 56.7348 19.014 57C19.014 57.2652 18.9086 57.5196 18.7211 57.7071C18.5335 57.8946 18.2792 58 18.014 58H18.016Z" fill="#ffffff" id="id_105"></path>
<path d="M60.95 21.04C60.6685 20.7138 60.32 20.4521 59.9283 20.2726C59.5366 20.0932 59.1108 20.0002 58.68 20H58V17C57.9976 16.2051 57.6808 15.4434 57.1187 14.8813C56.5566 14.3192 55.7949 14.0024 55 14H52V7C52 6.73478 51.8946 6.48043 51.7071 6.29289C51.5196 6.10536 51.2652 6 51 6H27V5C26.9976 4.20508 26.6808 3.4434 26.1187 2.8813C25.5566 2.31921 24.7949 2.00237 24 2H8.99999C8.20507 2.00237 7.44338 2.31921 6.88129 2.8813C6.31919 3.4434 6.00236 4.20508 5.99999 5V20H5.31999C4.88812 19.9997 4.46131 20.0929 4.06885 20.2731C3.67639 20.4533 3.32758 20.7163 3.04637 21.0441C2.76516 21.3719 2.55821 21.7566 2.43973 22.1719C2.32125 22.5872 2.29404 23.0232 2.35999 23.45L7.75999 59.45C7.86256 60.1607 8.21871 60.8103 8.76274 61.279C9.30676 61.7477 10.0019 62.0037 10.72 62H53.28C53.998 62.0037 54.6932 61.7477 55.2372 61.279C55.7813 60.8103 56.1374 60.1607 56.24 59.45L61.64 23.45C61.7046 23.0223 61.6765 22.5857 61.5574 22.1699C61.4384 21.754 61.2312 21.3687 60.95 21.04V21.04ZM52 16H55C55.2652 16 55.5196 16.1054 55.7071 16.2929C55.8946 16.4804 56 16.7348 56 17V20H52V16ZM50 8V20H14V16H21C21.2652 16 21.5196 15.8946 21.7071 15.7071C21.8946 15.5196 22 15.2652 22 15V8H50ZM15.41 14L20 9.41V14H15.41ZM7.99999 5C7.99999 4.73478 8.10534 4.48043 8.29288 4.29289C8.48042 4.10536 8.73477 4 8.99999 4H24C24.2652 4 24.5196 4.10536 24.7071 4.29289C24.8946 4.48043 25 4.73478 25 5V6H21C20.7349 6.00197 20.4807 6.1058 20.29 6.29L12.29 14.29C12.1058 14.4807 12.002 14.7349 12 15V20H7.99999V5ZM54.27 59.15C54.2341 59.3867 54.1144 59.6027 53.9327 59.7587C53.751 59.9147 53.5194 60.0003 53.28 60H10.72C10.4805 60.0003 10.2489 59.9147 10.0672 59.7587C9.88558 59.6027 9.7659 59.3867 9.72999 59.15L4.32999 23.15C4.30901 23.008 4.31869 22.8631 4.35836 22.7251C4.39803 22.5871 4.46678 22.4592 4.55999 22.35C4.65357 22.2399 4.77006 22.1515 4.90132 22.091C5.03259 22.0306 5.17547 21.9995 5.31999 22H58.68C58.8245 21.9995 58.9674 22.0306 59.0986 22.091C59.2299 22.1515 59.3464 22.2399 59.44 22.35C59.5332 22.4592 59.6019 22.5871 59.6416 22.7251C59.6813 22.8631 59.691 23.008 59.67 23.15L54.27 59.15Z" fill="#1e963a" id="id_106"></path>
<path d="M24 13C24 13.2652 24.1054 13.5196 24.2929 13.7071C24.4804 13.8946 24.7348 14 25 14H47C47.2652 14 47.5196 13.8946 47.7071 13.7071C47.8946 13.5196 48 13.2652 48 13C48 12.7348 47.8946 12.4804 47.7071 12.2929C47.5196 12.1054 47.2652 12 47 12H25C24.7348 12 24.4804 12.1054 24.2929 12.2929C24.1054 12.4804 24 12.7348 24 13Z" fill="#2ac74f" id="id_107"></path>
<path d="M47 16H25C24.7348 16 24.4804 16.1054 24.2929 16.2929C24.1054 16.4804 24 16.7348 24 17C24 17.2652 24.1054 17.5196 24.2929 17.7071C24.4804 17.8946 24.7348 18 25 18H47C47.2652 18 47.5196 17.8946 47.7071 17.7071C47.8946 17.5196 48 17.2652 48 17C48 16.7348 47.8946 16.4804 47.7071 16.2929C47.5196 16.1054 47.2652 16 47 16Z" fill="#2bc24e" id="id_108"></path>
<path d="M56 24H50C49.7348 24 49.4804 24.1054 49.2929 24.2929C49.1054 24.4804 49 24.7348 49 25C49 25.2652 49.1054 25.5196 49.2929 25.7071C49.4804 25.8946 49.7348 26 50 26H54.819L54.019 30.835C53.9753 31.0965 54.0373 31.3646 54.1912 31.5805C54.3452 31.7963 54.5785 31.9422 54.84 31.986C54.8928 31.9952 54.9464 31.9999 55 32C55.2364 31.9997 55.465 31.9157 55.6453 31.7628C55.8257 31.6099 55.946 31.3981 55.985 31.165L56.985 25.165C57.009 25.0218 57.0014 24.8751 56.963 24.7351C56.9245 24.5952 56.8561 24.4652 56.7623 24.3544C56.6686 24.2435 56.5519 24.1544 56.4202 24.0932C56.2886 24.032 56.1452 24.0002 56 24Z" fill="#fafafa" id="id_109"></path>
</svg>