<svg width="512" height="512" viewBox="0 0 512 512" fill="none" xmlns="http://www.w3.org/2000/svg">
<path d="M216 270.676V215.194C216 205.909 213.307 196.823 208.248 189.038C203.188 181.253 195.979 175.102 187.495 171.331L153.502 156.223C150.673 154.966 148.271 152.916 146.584 150.321C144.898 147.726 144 144.697 144 141.602V128L153.282 114.077C157.663 107.506 160 99.7859 160 91.8889V64C160 53.3913 155.786 43.2172 148.284 35.7157C140.783 28.2143 130.609 24 120 24C109.391 24 99.2172 28.2143 91.7157 35.7157C84.2143 43.2172 80 53.3913 80 64V91.8889C79.9999 99.7859 82.3374 107.506 86.718 114.077L96 128V141.602C96 144.697 95.1024 147.726 93.4159 150.321C91.7294 152.916 89.3265 154.966 86.4983 156.223L52.5054 171.331C44.0207 175.102 36.8118 181.253 31.7523 189.038C26.6929 196.823 24 205.909 24 215.194V312H174.676C182.769 293.522 197.522 278.769 216 270.676V270.676Z" fill="#12A08B" id="id_101"></path>
<path d="M216 270.675V215.18C215.997 203.965 212.065 193.105 204.887 184.488C191.57 221.804 167.038 254.088 134.655 276.915C102.271 299.743 63.6206 311.997 24 311.999H174.676C182.769 293.521 197.522 278.768 216 270.675V270.675Z" fill="#0F8876" id="id_102"></path>
<path d="M459.495 171.331L425.502 156.223C422.673 154.966 420.271 152.916 418.584 150.321C416.898 147.726 416 144.697 416 141.602V128L425.282 114.077C429.663 107.506 432 99.7859 432 91.8889V64C432 53.3913 427.786 43.2172 420.284 35.7157C412.783 28.2143 402.609 24 392 24C381.391 24 371.217 28.2143 363.716 35.7157C356.214 43.2172 352 53.3913 352 64V91.8889C352 99.7859 354.337 107.506 358.718 114.077L368 128V141.602C368 144.697 367.102 147.726 365.416 150.321C363.729 152.916 361.327 154.966 358.498 156.223L324.505 171.331C316.021 175.102 308.812 181.253 303.752 189.038C298.693 196.823 296 205.909 296 215.194V279.999C307.057 288.306 315.781 299.329 321.324 312H488V215.194C488 205.909 485.307 196.823 480.248 189.038C475.188 181.253 467.979 175.102 459.495 171.331V171.331Z" fill="#12A08B" id="id_103"></path>
<path d="M456 216H440V312H456V216Z" fill="#25BFA5" id="id_104"></path>
<path d="M320.613 310.434C320.854 310.954 321.098 311.473 321.328 311.999H488.003V215.193C488.003 203.973 484.071 193.109 476.891 184.488C464.975 217.843 444.075 247.256 416.498 269.481C388.92 291.706 355.738 305.879 320.613 310.434V310.434Z" fill="#0F8876" id="id_105"></path>
<path d="M440 246.977V311.999H456V226.141C451.147 233.442 445.801 240.404 440 246.977V246.977Z" fill="#1FA38C" id="id_106"></path>
<path d="M323.495 171.331L289.502 156.223C286.673 154.966 284.271 152.916 282.584 150.321C280.898 147.726 280 144.697 280 141.602V128L289.282 114.077C293.663 107.506 296 99.7859 296 91.8889V64C296 53.3913 291.786 43.2172 284.284 35.7157C276.783 28.2143 266.609 24 256 24C245.391 24 235.217 28.2143 227.716 35.7157C220.214 43.2172 216 53.3913 216 64V91.8889C216 99.7859 218.337 107.506 222.718 114.077L232 128V141.602C232 144.697 231.102 147.726 229.416 150.321C227.729 152.916 225.327 154.966 222.498 156.223L188.505 171.331C180.021 175.102 172.812 181.253 167.752 189.038C162.693 196.823 160 205.909 160 215.194V312H174.676C180.903 297.733 191.157 285.593 204.181 277.067C217.205 268.541 232.433 264 248 264C263.567 264 278.795 268.541 291.819 277.067C304.843 285.593 315.097 297.733 321.324 312H352V215.194C352 205.909 349.307 196.823 344.248 189.038C339.188 181.253 331.979 175.102 323.495 171.331Z" fill="#25BFA5" id="id_107"></path>
<path d="M279.359 270.389C298.129 278.419 313.136 293.298 321.327 311.999H352.002V215.193C352.002 203.973 348.07 193.109 340.89 184.488C328.798 218.303 307.484 248.059 279.359 270.389Z" fill="#21AC94" id="id_108"></path>
<path d="M72 216H56V312H72V216Z" fill="#25BFA5" id="id_109"></path>
<path d="M392 362.926V325.074L355.836 316.403C350.774 304.186 348.843 299.525 343.78 287.308L363.284 255.48C348.819 241.015 350.986 243.182 336.521 228.717L304.692 248.22C292.475 243.158 287.814 241.227 275.597 236.164L266.926 200H229.074L220.403 236.164C208.186 241.226 203.525 243.157 191.308 248.22L159.48 228.716C145.015 243.181 147.182 241.014 132.717 255.479L152.22 287.308C147.158 299.525 145.227 304.186 140.164 316.403L104 325.074V362.926L140.164 371.597C145.226 383.814 147.157 388.475 152.22 400.692L132.716 432.52C147.181 446.985 145.014 444.818 159.479 459.283L191.308 439.78C203.525 444.842 208.186 446.774 220.403 451.836L229.074 488H266.926L275.597 451.836C287.814 446.774 292.475 444.843 304.692 439.78L336.52 459.284C350.985 444.819 348.818 446.986 363.283 432.521L343.78 400.692C348.842 388.475 350.774 383.814 355.836 371.597L392 362.926ZM247.999 424C232.176 424 216.709 419.308 203.553 410.518C190.397 401.727 180.144 389.233 174.089 374.615C168.034 359.997 166.449 343.911 169.536 328.393C172.623 312.874 180.242 298.62 191.43 287.431C202.619 276.243 216.873 268.624 232.392 265.537C247.91 262.45 263.996 264.035 278.614 270.09C293.232 276.145 305.726 286.398 314.517 299.554C323.307 312.71 327.999 328.177 327.999 344C327.999 365.217 319.57 385.566 304.568 400.569C289.565 415.571 269.216 424 247.999 424V424Z" fill="#51db4f" id="id_110"></path>
<path d="M232 328V296H264V328H296V360H264V392H232V360H200V328H232Z" fill="#46d650" id="id_111"></path>
<path d="M27.7861 362.48C25.1288 354.326 22.9117 346.036 21.1445 337.645L36.8027 334.352C38.4501 342.179 40.5179 349.912 42.9971 357.517L27.7861 362.48Z" fill="#46d650" id="id_112"></path>
<path d="M45.7744 403.869C41.3344 395.827 37.3601 387.536 33.8711 379.037L48.6738 372.965C51.9289 380.894 55.6372 388.629 59.7803 396.133L45.7744 403.869Z" fill="#46d655" id="id_113"></path>
<path d="M148.41 502.587C110.919 483.722 78.9996 455.399 55.8086 420.418L69.1445 411.578C90.7944 444.235 120.592 470.677 155.592 488.29L148.41 502.587Z" fill="#4ed646" id="id_114"></path>
<path d="M363.592 502.588L356.41 488.291C365.181 483.881 373.654 478.901 381.773 473.383L390.769 486.615C382.069 492.528 372.99 497.863 363.592 502.588Z" fill="#5ed646" id="id_115"></path>
<path d="M412.379 470.068L401.949 457.936C410.263 450.784 418.045 443.038 425.235 434.758L437.319 445.246C429.619 454.114 421.283 462.41 412.379 470.068V470.068Z" fill="#49d646" id="id_116"></path>
<path d="M450.455 428.693L437.5 419.303C455.93 393.969 468.779 365.015 475.199 334.352L490.857 337.645C483.977 370.509 470.207 401.541 450.455 428.693V428.693Z" fill="#46d64b" id="id_117"></path>
<path d="M222.93 462.371L229.075 488.001H266.927L275.598 451.837C287.815 446.775 292.476 444.844 304.693 439.781L336.521 459.285C350.986 444.82 348.819 446.987 363.284 432.521L343.781 400.693C348.843 388.476 350.775 383.815 355.837 371.598L392.001 362.927V325.075L366.371 318.93C337.452 382.499 286.5 433.452 222.93 462.371V462.371Z" fill="#49d646" id="id_118"></path>
<path d="M271.551 360H296.003V328H290.533C286.355 339.803 279.906 350.674 271.551 360Z" fill="#46d661" id="id_119"></path>
<path d="M232 388.319V392H264V375.547C254.051 381.419 243.258 385.727 232 388.319V388.319Z" fill="#46d655" id="id_120"></path>
<path d="M56 311.999H72V305.941C66.7502 307.293 61.4169 308.424 56 309.335V311.999Z" fill="#1FA38C" id="id_121"></path>
</svg>