<svg width="64" height="64" viewBox="0 0 64 64" fill="none" xmlns="http://www.w3.org/2000/svg">
<path d="M42.6501 3.65013C42.5572 3.12765 42.2607 2.66345 41.8256 2.35964C41.3905 2.05583 40.8525 1.9373 40.3301 2.03013C39.8076 2.12295 39.3434 2.41953 39.0396 2.85461C38.7358 3.2897 38.6172 3.82765 38.7101 4.35013L48.7101 60.3501C48.8029 60.8726 49.0995 61.3368 49.5345 61.6406C49.9696 61.9444 50.5076 62.063 51.0301 61.9701C51.5525 61.8773 52.0167 61.5807 52.3205 61.1456C52.6244 60.7106 52.7429 60.1726 52.6501 59.6501L42.6501 3.65013Z" fill="url(#paint0_linear)" id="id_101"></path>
<path d="M23.6699 1.99998C23.4112 1.9539 23.146 1.95926 22.8893 2.01575C22.6327 2.07224 22.3897 2.17875 22.1742 2.3292C21.9588 2.47965 21.7751 2.67109 21.6336 2.89257C21.4922 3.11404 21.3958 3.36123 21.3499 3.61998L11.3499 59.62C11.304 59.8787 11.3094 60.1439 11.366 60.4005C11.4225 60.6571 11.529 60.9001 11.6795 61.1155C11.8299 61.3309 12.0213 61.5146 12.2427 61.6561C12.4641 61.7976 12.7112 61.894 12.9699 61.94C13.2286 61.9859 13.4939 61.9805 13.7505 61.924C14.0071 61.8674 14.25 61.7609 14.4655 61.6105C14.6809 61.46 14.8646 61.2686 15.006 61.0472C15.1475 60.8258 15.244 60.5787 15.2899 60.32L25.2899 4.31998C25.336 4.06126 25.3307 3.796 25.2742 3.53936C25.2177 3.28272 25.1112 3.03972 24.9607 2.82426C24.8103 2.60881 24.6188 2.42511 24.3974 2.28368C24.1759 2.14224 23.9287 2.04584 23.6699 1.99998Z" fill="url(#paint1_linear)" id="id_102"></path>
<path d="M61.9299 59.48L46.9299 3.48003C46.8821 3.20821 46.7785 2.94923 46.6257 2.7194C46.4729 2.48956 46.2742 2.29383 46.0421 2.14454C45.81 1.99524 45.5494 1.8956 45.2769 1.8519C45.0044 1.80819 44.7258 1.82136 44.4586 1.89058C44.1915 1.95979 43.9415 2.08356 43.7245 2.25408C43.5075 2.42461 43.3281 2.63821 43.1977 2.88143C43.0672 3.12466 42.9885 3.39225 42.9666 3.66737C42.9446 3.94248 42.9798 4.21917 43.0699 4.48003L58.0699 60.48C58.1178 60.7518 58.2213 61.0108 58.3741 61.2407C58.5269 61.4705 58.7257 61.6662 58.9578 61.8155C59.1899 61.9648 59.4504 62.0645 59.7229 62.1082C59.9955 62.1519 60.2741 62.1387 60.5412 62.0695C60.8084 62.0003 61.0584 61.8765 61.2754 61.706C61.4924 61.5354 61.6718 61.3218 61.8022 61.0786C61.9326 60.8354 62.0113 60.5678 62.0333 60.2927C62.0553 60.0176 62.0201 59.7409 61.9299 59.48V59.48Z" fill="url(#paint2_linear)" id="id_103"></path>
<path d="M19.5199 2.07003C19.0081 1.93244 18.4625 2.00366 18.0032 2.26804C17.5438 2.53242 17.2081 2.96834 17.0699 3.48003L2.06994 59.48C1.97977 59.7409 1.94458 60.0176 1.96656 60.2927C1.98854 60.5678 2.06723 60.8354 2.19767 61.0786C2.32811 61.3219 2.50747 61.5354 2.72449 61.706C2.9415 61.8765 3.19145 62.0003 3.45863 62.0695C3.7258 62.1387 4.00441 62.1519 4.27693 62.1082C4.54944 62.0645 4.80995 61.9648 5.04208 61.8155C5.27421 61.6662 5.47293 61.4705 5.62573 61.2407C5.77853 61.0108 5.8821 60.7518 5.92994 60.48L20.9299 4.48003C21.0556 3.97378 20.9785 3.43847 20.7151 2.98826C20.4517 2.53804 20.0228 2.20854 19.5199 2.07003V2.07003Z" fill="url(#paint3_linear)" id="id_104"></path>
<path d="M32 2C31.4696 2 30.9609 2.21071 30.5858 2.58579C30.2107 2.96086 30 3.46957 30 4V5.25C30 5.78043 30.2107 6.28914 30.5858 6.66421C30.9609 7.03929 31.4696 7.25 32 7.25C32.5304 7.25 33.0391 7.03929 33.4142 6.66421C33.7893 6.28914 34 5.78043 34 5.25V4C34 3.46957 33.7893 2.96086 33.4142 2.58579C33.0391 2.21071 32.5304 2 32 2Z" fill="url(#paint4_linear)" id="id_105"></path>
<path d="M32 8.81006C31.4696 8.81006 30.9609 9.02077 30.5858 9.39584C30.2107 9.77092 30 10.2796 30 10.8101V13.8701C30 14.4005 30.2107 14.9092 30.5858 15.2843C30.9609 15.6593 31.4696 15.8701 32 15.8701C32.5304 15.8701 33.0391 15.6593 33.4142 15.2843C33.7893 14.9092 34 14.4005 34 13.8701V10.8101C34 10.2796 33.7893 9.77092 33.4142 9.39584C33.0391 9.02077 32.5304 8.81006 32 8.81006Z" fill="url(#paint5_linear)" id="id_106"></path>
<path d="M32 19.6799C31.4696 19.6799 30.9609 19.8906 30.5858 20.2657C30.2107 20.6408 30 21.1495 30 21.6799V26.3199C30 26.8504 30.2107 27.3591 30.5858 27.7341C30.9609 28.1092 31.4696 28.3199 32 28.3199C32.5304 28.3199 33.0391 28.1092 33.4142 27.7341C33.7893 27.3591 34 26.8504 34 26.3199V21.6799C34 21.1495 33.7893 20.6408 33.4142 20.2657C33.0391 19.8906 32.5304 19.6799 32 19.6799Z" fill="url(#paint6_linear)" id="id_107"></path>
<path d="M32 52.5C31.4696 52.5 30.9609 52.7107 30.5858 53.0858C30.2107 53.4609 30 53.9696 30 54.5V60C30 60.5304 30.2107 61.0391 30.5858 61.4142C30.9609 61.7893 31.4696 62 32 62C32.5304 62 33.0391 61.7893 33.4142 61.4142C33.7893 61.0391 34 60.5304 34 60V54.5C34 53.9696 33.7893 53.4609 33.4142 53.0858C33.0391 52.7107 32.5304 52.5 32 52.5Z" fill="url(#paint7_linear)" id="id_108"></path>
<path d="M43.62 51.3699L33.79 31.7099C33.6242 31.3771 33.3688 31.0971 33.0526 30.9014C32.7364 30.7057 32.3719 30.6021 32 30.6021C31.6282 30.6021 31.2637 30.7057 30.9475 30.9014C30.6313 31.0971 30.3759 31.3771 30.21 31.7099L20.38 51.3699C20.1855 51.7408 20.1123 52.1633 20.1707 52.578C20.2291 52.9927 20.4162 53.3786 20.7056 53.6812C20.995 53.9839 21.3721 54.1881 21.7838 54.265C22.1954 54.3419 22.6209 54.2877 23 54.1099L32 50.2299L41 54.1099C41.3765 54.2719 41.7936 54.3142 42.1949 54.2313C42.5963 54.1484 42.9625 53.9443 43.2439 53.6464C43.5254 53.3486 43.7086 52.9714 43.7687 52.5661C43.8288 52.1607 43.763 51.7466 43.58 51.3799L43.62 51.3699Z" fill="url(#paint8_linear)" id="id_109"></path>
<defs>
<linearGradient id="paint0_linear" x1="38.6801" y1="32.0001" x2="52.6801" y2="32.0001" gradientUnits="userSpaceOnUse">
<stop stop-color="#2eb35d" id="id_110"></stop>
<stop offset="0.38" stop-color="#30b85f" id="id_111"></stop>
<stop offset="1" stop-color="#31bd62" id="id_112"></stop>
</linearGradient>
<linearGradient id="paint1_linear" x1="169.82" y1="1922.03" x2="365.846" y2="1922.03" gradientUnits="userSpaceOnUse">
<stop stop-color="#289e51" id="id_113"></stop>
<stop offset="0.38" stop-color="#1B6FF6" id="id_114"></stop>
<stop offset="1" stop-color="#0B9EE3" id="id_115"></stop>
</linearGradient>
<linearGradient id="paint2_linear" x1="863.377" y1="1931.64" x2="1225.89" y2="1931.64" gradientUnits="userSpaceOnUse">
<stop stop-color="#2eb05b" id="id_116"></stop>
<stop offset="0.38" stop-color="#2ba857" id="id_117"></stop>
<stop offset="1" stop-color="#2ba656" id="id_118"></stop>
</linearGradient>
<linearGradient id="paint3_linear" x1="40.0175" y1="1926.22" x2="401.562" y2="1926.22" gradientUnits="userSpaceOnUse">
<stop stop-color="#2ba857" id="id_119"></stop>
<stop offset="0.38" stop-color="#2aa354" id="id_120"></stop>
<stop offset="1" stop-color="#0B9EE3" id="id_121"></stop>
</linearGradient>
<linearGradient id="paint4_linear" x1="150" y1="26.3075" x2="166" y2="26.3075" gradientUnits="userSpaceOnUse">
<stop stop-color="#4cc762" id="id_122"></stop>
<stop offset="0.38" stop-color="#31bf63" id="id_123"></stop>
<stop offset="1" stop-color="#4cc963" id="id_124"></stop>
</linearGradient>
<linearGradient id="paint5_linear" x1="150" y1="95.9305" x2="166" y2="95.9305" gradientUnits="userSpaceOnUse">
<stop stop-color="#4ecc65" id="id_125"></stop>
<stop offset="0.38" stop-color="#50c967" id="id_126"></stop>
<stop offset="1" stop-color="#259e4f" id="id_127"></stop>
</linearGradient>
<linearGradient id="paint6_linear" x1="150" y1="226.954" x2="166" y2="226.954" gradientUnits="userSpaceOnUse">
<stop stop-color="#269e50" id="id_128"></stop>
<stop offset="0.38" stop-color="#34a15a" id="id_129"></stop>
<stop offset="1" stop-color="#2f9e56" id="id_130"></stop>
</linearGradient>
<linearGradient id="paint7_linear" x1="150" y1="596.375" x2="166" y2="596.375" gradientUnits="userSpaceOnUse">
<stop stop-color="#50cf68" id="id_131"></stop>
<stop offset="0.38" stop-color="#2bc223" id="id_132"></stop>
<stop offset="1" stop-color="#31b02a" id="id_133"></stop>
</linearGradient>
<linearGradient id="paint8_linear" x1="20.17" y1="42.4299" x2="43.83" y2="42.4299" gradientUnits="userSpaceOnUse">
<stop stop-color="#2aa324" id="id_134"></stop>
<stop offset="0.14" stop-color="#23a63b" id="id_135"></stop>
<stop offset="0.27" stop-color="#22a61b" id="id_136"></stop>
<stop offset="0.4" stop-color="#22a83a" id="id_137"></stop>
<stop offset="0.53" stop-color="#20a839" id="id_138"></stop>
<stop offset="0.66" stop-color="#21ad3a" id="id_139"></stop>
<stop offset="0.78" stop-color="#24a83c" id="id_140"></stop>
<stop offset="0.85" stop-color="#21a339" id="id_141"></stop>
</linearGradient>
</defs>
</svg>