<?xml version="1.0" encoding="iso-8859-1"?>
<!-- Generator: Adobe Illustrator 19.0.0, SVG Export Plug-In . SVG Version: 6.00 Build 0)  -->
<svg version="1.1" id="Layer_1" xmlns="http://www.w3.org/2000/svg" xmlns:xlink="http://www.w3.org/1999/xlink" x="0px" y="0px"
	 viewBox="0 0 512 512" style="enable-background:new 0 0 512 512;" xml:space="preserve">
<path style="fill:#00A2A9;" d="M494.914,238.935H423.24c-9.425,0-17.065-7.641-17.065-17.065v-95.093
	c0-7.338,4.691-13.855,11.65-16.184c6.96-2.329,14.627,0.052,19.044,5.911l71.674,95.093
	C516.999,222.817,508.979,238.935,494.914,238.935z"/>
<path style="fill:#00D8E0;" d="M88.761,238.935H17.087c-14.05,0-22.094-16.106-13.628-27.336l71.674-95.093
	c4.415-5.86,12.084-8.241,19.044-5.911c6.959,2.329,11.65,8.845,11.65,16.184v95.093C105.826,231.294,98.186,238.935,88.761,238.935
	z"/>
<path style="fill:#FFDB2D;" d="M311.607,306.058H200.393c-8.272,0-15.352-5.932-16.801-14.075l-9.441-53.048h-85.39
	c-9.425,0-17.065-7.641-17.065-17.065V86.485c0-9.425,7.641-17.065,17.065-17.065h20.478V51.217c0-9.425,7.641-17.065,17.065-17.065
	h89.877c9.425,0,17.065,7.641,17.065,17.065V69.42H423.24c9.425,0,17.065,7.641,17.065,17.065v135.384
	c0,9.425-7.641,17.065-17.065,17.065h-85.39l-9.44,53.048C326.96,300.126,319.879,306.058,311.607,306.058z"/>
<path style="fill:#FF9900;" d="M423.24,69.42h-167.24v236.638h55.607c8.272,0,15.352-5.932,16.801-14.075l9.441-53.048h85.39
	c9.425,0,17.065-7.641,17.065-17.065V86.485C440.306,77.06,432.665,69.42,423.24,69.42z"/>
<path style="fill:#B9F7F9;" d="M494.914,477.848H17.087c-9.425,0-17.065-7.641-17.065-17.065V221.869
	c0-9.425,7.641-17.065,17.065-17.065h171.361c8.271,0,15.352,5.932,16.801,14.075l8.605,48.356c0.484,2.715,2.843,4.692,5.601,4.692
	h73.091c2.757,0,5.117-1.977,5.601-4.692l8.605-48.356c1.449-8.144,8.529-14.075,16.801-14.075h171.361
	c9.425,0,17.065,7.641,17.065,17.065v238.914C511.98,470.209,504.339,477.848,494.914,477.848z"/>
<path style="fill:#FF4F19;" d="M364.081,163.848H325.4c-9.425,0-17.065-7.641-17.065-17.065c0-9.425,7.641-17.065,17.065-17.065
	h38.681c9.425,0,17.065,7.641,17.065,17.065C381.146,156.207,373.505,163.848,364.081,163.848z"/>
<path style="fill:#00D8E0;" d="M494.914,204.804H323.553c-8.271,0-15.352,5.932-16.801,14.075l-8.605,48.356
	c-0.484,2.715-2.843,4.692-5.601,4.692h-36.545v205.921h238.914c9.425,0,17.065-7.641,17.065-17.065V221.869
	C511.98,212.445,504.339,204.804,494.914,204.804z"/>
<g>
</g>
<g>
</g>
<g>
</g>
<g>
</g>
<g>
</g>
<g>
</g>
<g>
</g>
<g>
</g>
<g>
</g>
<g>
</g>
<g>
</g>
<g>
</g>
<g>
</g>
<g>
</g>
<g>
</g>
</svg>
