<?xml version="1.0" encoding="iso-8859-1"?>
<!-- Generator: Adobe Illustrator 19.0.0, SVG Export Plug-In . SVG Version: 6.00 Build 0)  -->
<svg version="1.1" id="Layer_1" xmlns="http://www.w3.org/2000/svg" xmlns:xlink="http://www.w3.org/1999/xlink" x="0px" y="0px"
	 viewBox="0 0 512 512" style="enable-background:new 0 0 512 512;" xml:space="preserve">
<path style="fill:#FFFFFF;" d="M236.74,219.014c9.907,8.87,16.141,21.758,16.141,36.102c0,26.755-21.689,48.444-48.444,48.444
	s-48.444-21.689-48.444-48.444s21.689-48.444,48.444-48.444"/>
<polygon style="fill:#FDCD81;" points="212.913,238.968 212.913,6.153 422.112,6.153 422.112,207.148 269.029,207.148 "/>
<polygon style="fill:#FCC062;" points="212.913,238.968 212.913,6.153 406.287,6.153 285.177,207.148 269.029,207.148 "/>
<path style="fill:#C7B299;" d="M236.74,219.014c9.906,8.869,16.141,21.758,16.141,36.102c0,26.755-21.689,48.444-48.444,48.444
	s-48.82-21.689-48.82-48.444s22.43-48.444,48.068-48.444v-24.222c-38.969,0-72.29,32.534-72.29,72.666
	c0,40.131,32.721,72.666,72.855,72.666c40.132,0,72.76-32.534,72.76-72.666c0-18.617-6.953-35.597-18.465-48.454L236.74,219.014z"/>
<path style="fill:#FF1D25;" d="M258.59,206.662c11.512,12.858,18.512,29.838,18.512,48.454c0,40.131-32.534,72.666-72.666,72.666
	s-73.042-32.534-73.042-72.666s38.651-73.605,77.619-73.605l-0.799-39.43c-62.555,0-117.19,50.608-117.19,113.035
	s113.224,242.219,113.224,242.219s113.13-179.791,113.13-242.219c0-17.353-3.863-33.794-10.851-48.487"/>
<path style="fill:#998675;" d="M203.684,303.561c-25.637,0-48.444-21.689-48.444-48.444s22.807-48.444,48.444-48.444v-24.222
	c-38.969,0-72.666,32.534-72.666,72.666c0,40.131,33.697,72.666,72.666,72.666V303.561z"/>
<path style="fill:#B20209;" d="M164.069,315.53c-19.471-13.036-32.298-35.222-32.298-60.413c0-26.162,9.906-48.983,30.65-61.779
	c17.086-10.288,33.051-10.935,33.997-10.814c0.064,0.008,0.124,0.012,0.188,0.012h14.256V142.08l-14.613,0.461
	c-57.427,0-108.942,50.377-108.942,112.805s115.083,242.105,115.083,242.105s13.077-19.244,29.283-47.187
	C209.997,412.89,181.934,359.777,164.069,315.53z"/>
<path d="M428.265,0H203.684v136.356l-0.156,0.037c-31.944,0.231-61.892,12.6-84.417,34.89
	c-22.813,22.576-35.376,52.747-35.376,84.957c0,63.92,109.586,238.071,114.251,245.453L204.498,512l6.497-10.315
	c4.666-7.408,114.269-182.154,114.269-246.069c0-13.531-2.215-26.679-6.594-39.239h109.595V0z M260.336,221.94
	c5.971,9.996,9.11,21.326,9.11,33.177c0,35.827-29.114,64.975-64.941,64.975s-64.907-29.147-64.907-64.975
	c0-35.484,28.666-64.398,64.086-64.948v8.84c-30.302,0.554-55.246,25.502-55.246,56.109c0,30.953,25.045,56.135,55.999,56.135
	s56.139-25.182,56.139-56.135c0-10.293-2.843-20.334-8.108-29.045L260.336,221.94z M238.832,233.235
	c4.142,6.502,6.392,14.094,6.392,21.882c0,22.471-18.248,40.753-40.719,40.753s-40.684-18.282-40.684-40.753
	c0-22.129,17.777-40.181,39.864-40.726v37.305L238.832,233.235z M309.882,255.617c0,16.911-9.644,55.046-55.59,140.685
	c-19.823,36.948-39.841,70.351-49.816,86.669c-9.978-16.272-29.981-49.548-49.787-86.364
	c-45.931-85.377-55.572-123.454-55.572-140.364c0-28.072,10.943-54.36,30.814-74.024c19.662-19.458,45.829-30.246,73.752-30.436
	v23.005c-43.631,0.556-79.468,36.367-79.468,80.33c0,44.309,35.912,80.357,80.221,80.357s80.361-36.048,80.361-80.357
	c0-13.756-3.415-26.944-9.937-38.739h27.37C307.31,228.824,309.882,241.995,309.882,255.617z M412.883,200.995h-145.75
	l-48.067,25.246V15.382h193.817V200.995z"/>
<rect x="389.296" y="103.574" style="fill:#FF1D25;" width="17.433" height="15.382"/>
<circle style="fill:#FFFFFF;" cx="293.249" cy="85.567" r="56.515"/>
<rect x="366.735" y="128.186" style="fill:#7AC943;" width="39.994" height="15.382"/>
<rect x="342.123" y="151.772" style="fill:#FF1D25;" width="64.606" height="15.382"/>
<path d="M293.251,149.772c-35.405,0-64.209-28.804-64.209-64.209s28.804-64.209,64.209-64.209c16.909,0,32.871,6.518,44.945,18.353
	l-10.768,10.985c-9.181-9-21.319-13.956-34.177-13.956c-26.923,0-48.827,21.903-48.827,48.827s21.903,48.826,48.827,48.826
	s48.827-21.903,48.827-48.826c0-4.751-0.68-9.444-2.019-13.949l14.744-4.385c1.763,5.928,2.657,12.097,2.657,18.334
	C357.46,120.967,328.656,149.772,293.251,149.772z"/>
<rect x="317.512" y="175.358" style="fill:#7AC943;" width="16.408" height="15.382"/>
<rect x="342.123" y="175.358" style="fill:#FF1D25;" width="16.408" height="15.382"/>
<rect x="366.735" y="175.358" style="fill:#7AC943;" width="14.357" height="15.382"/>
<rect x="389.296" y="175.358" style="fill:#FF1D25;" width="17.433" height="15.382"/>
<polygon style="fill:#7AC943;" points="293.251,112.588 263.591,82.927 274.468,72.051 293.251,90.835 360.479,23.607 
	371.355,34.483 "/>
<g>
</g>
<g>
</g>
<g>
</g>
<g>
</g>
<g>
</g>
<g>
</g>
<g>
</g>
<g>
</g>
<g>
</g>
<g>
</g>
<g>
</g>
<g>
</g>
<g>
</g>
<g>
</g>
<g>
</g>
</svg>
