<svg id="Layer_1" data-name="Layer 1" xmlns="http://www.w3.org/2000/svg" viewBox="0 0 383.23 398.41"><defs><style>.cls-1{fill:#b90c16;}.cls-2{fill:#fc2a3a;}.cls-3{fill:#fff;}</style></defs><polygon class="cls-1" points="37.84 388.79 37.84 227.36 0 227.36 0 355.69 37.84 388.79"/><polygon class="cls-1" points="369.88 37.85 208.45 37.85 208.45 0.01 336.79 0.01 369.88 37.85"/><polygon class="cls-2" points="0 355.69 0 218.85 199.61 0 336.79 0 0 355.69"/><path class="cls-3" d="M109.85,213.08,97.62,201.71l4-.41-9.88,10.63A28.58,28.58,0,0,1,82,219.07a16.87,16.87,0,0,1-10,1.11,21.28,21.28,0,0,1-15.17-14.36,18.09,18.09,0,0,1,.47-10.45,28.84,28.84,0,0,1,6.52-10.44l15.53-16.71,38.74,36ZM87.05,237.6l-4.93-22.55L90.55,206l5.3,22.15ZM94.74,199,76.09,181.7l4.38,0-9.15,9.85c-2.37,2.54-3.59,5-3.66,7.48s1,4.75,3.38,6.91,4.58,3.06,7,2.9,4.79-1.49,7.13-4l9.36-10.07Z"/><path class="cls-3" d="M135.42,185.58l-8.34,9-38.73-36,8.33-9Zm1.09-33-17.59,18.92-7.58-7,17.59-18.92ZM113,132l8.34-9,38.73,36-8.33,9Z"/><path class="cls-3" d="M169.11,149.34l-38.73-36L155.8,86l7.25,6.85-19,20.47-.14-4,33.53,31.07Z"/><path class="cls-3" d="M199.62,116.53l-38.73-36,8.28-8.91,25.24,23.46-8-41.94,7.82-8.41,38.73,36-8.23,8.85L199.5,66.18l8,41.89Z"/></svg>