<svg id="Layer_1" data-name="Layer 1" xmlns="http://www.w3.org/2000/svg" viewBox="0 0 383.23 398.41"><defs><style>.cls-1{fill:#b90c16;}.cls-2{fill:#fc2a3a;}.cls-3{fill:#fff;}</style></defs><polygon class="cls-1" points="37.84 388.79 37.84 227.36 0 227.36 0 355.69 37.84 388.79"/><polygon class="cls-1" points="369.88 37.85 208.45 37.85 208.45 0.01 336.79 0.01 369.88 37.85"/><polygon class="cls-2" points="0 355.69 0 218.85 199.61 0 336.79 0 0 355.69"/><path class="cls-3" d="M77,246.44,60.55,231l7.63,3.16-46.05-10,9.29-9.88L66.75,222l-5.35,5.69-9.77-34.84,8.58-9.14L73,229.05l-3.69-7.36,16.43,15.45Z"/><path class="cls-3" d="M96.81,225.36,73.45,169.63l8.64-9.19,57.12,19.83L130,190,80.7,171.36l3.45-3.68,21.62,48.15Zm-.19-17.06-4.75-9.12,19.45-20.68,9.44,4.12Z"/><path class="cls-3" d="M143.15,176.07l-40.21-37.81,7.24-7.7,51.26,3.5-3.51,3.74-29-27.23,8.65-9.19,40.21,37.81-7.19,7.64-51.31-3.44,3.51-3.73,28.95,27.22Z"/><path class="cls-3" d="M205.74,110.89a33.5,33.5,0,0,1-9.76,7.33,28.29,28.29,0,0,1-10.87,2.87,27.26,27.26,0,0,1-10.93-1.62,30.17,30.17,0,0,1-16.66-15.66A27.21,27.21,0,0,1,155.26,93a28.63,28.63,0,0,1,2.26-11.08,36.58,36.58,0,0,1,17.62-18.23,26.26,26.26,0,0,1,12-2.35L187,72.47a20.09,20.09,0,0,0-7.9,1.56,19.2,19.2,0,0,0-6.42,4.57,20.72,20.72,0,0,0-4.1,6.21A16.13,16.13,0,0,0,168.83,98a19.3,19.3,0,0,0,4.34,5.86,18.91,18.91,0,0,0,6.06,3.91,16.62,16.62,0,0,0,6.65,1.16,16.06,16.06,0,0,0,6.56-1.62,20,20,0,0,0,5.86-4.39,22.84,22.84,0,0,0,4.16-6.21,21.34,21.34,0,0,0,1.76-7.92l11.7,1A33.29,33.29,0,0,1,212.55,101,40.59,40.59,0,0,1,205.74,110.89Zm1-13.7L191.61,83l8-8.51,16.32,15.34Z"/><path class="cls-3" d="M228.44,85.37,188.23,47.56,197,38.25l40.21,37.81Z"/></svg>