<svg id="Layer_1" data-name="Layer 1" xmlns="http://www.w3.org/2000/svg" viewBox="0 0 383.23 398.41"><defs><style>.cls-1{fill:#b90c16;}.cls-2{fill:#fc2a3a;}.cls-3{fill:#fff;}</style></defs><polygon class="cls-1" points="37.84 388.79 37.84 227.36 0 227.36 0 355.69 37.84 388.79"/><polygon class="cls-1" points="369.88 37.85 208.45 37.85 208.45 0.01 336.79 0.01 369.88 37.85"/><polygon class="cls-2" points="0 355.69 0 218.85 199.61 0 336.79 0 0 355.69"/><path class="cls-3" d="M74.32,246l-7.5,8L32.08,221.59l7.51-8Zm1.05-29.67-15.85,17-6.79-6.35,15.84-17ZM54.32,197.77l7.5-8,34.74,32.43-7.51,8Z"/><path class="cls-3" d="M120.78,197.41a28.83,28.83,0,0,1-8.45,6.37,24.6,24.6,0,0,1-9.42,2.53A23.7,23.7,0,0,1,93.49,205,25.71,25.71,0,0,1,79.2,191.61a23.27,23.27,0,0,1-2-9.32,25,25,0,0,1,1.88-9.57A30,30,0,0,1,93.22,157.6a24.82,24.82,0,0,1,9.37-2.48,24.8,24.8,0,0,1,23.75,14.7,23.36,23.36,0,0,1,2,9.32,25.27,25.27,0,0,1-1.86,9.51A28.12,28.12,0,0,1,120.78,197.41Zm-6.89-6.34a15.45,15.45,0,0,0,3.21-5,14.14,14.14,0,0,0-.43-11.18,17.62,17.62,0,0,0-9-8.43,14.54,14.54,0,0,0-5.66-1,13.67,13.67,0,0,0-5.5,1.32,15.85,15.85,0,0,0-4.82,3.57,15.63,15.63,0,0,0-3.22,5,14.17,14.17,0,0,0,.44,11.17,16.08,16.08,0,0,0,3.75,5,16.42,16.42,0,0,0,5.25,3.37,14.37,14.37,0,0,0,5.68,1,13.45,13.45,0,0,0,5.5-1.31A15.76,15.76,0,0,0,113.89,191.07Z"/><path class="cls-3" d="M143.67,171.7l-34.73-32.43L124,123.09q5.65-6,11.14-7.25a10.42,10.42,0,0,1,9.8,2.84,10.66,10.66,0,0,1,3.66,9.36q-.62,5.37-5.52,10.63l-1.21-2.88q5.47-5.86,10.81-6.91a10.7,10.7,0,0,1,9.76,3.08,11.59,11.59,0,0,1,4,10.14q-.62,5.88-6.77,12.48Zm-12.88-27,7-7.5a8.56,8.56,0,0,0,2.63-5,5.14,5.14,0,0,0-1.9-4.28,5.2,5.2,0,0,0-4.4-1.61,8.71,8.71,0,0,0-4.77,3l-7,7.49Zm14.39,13.43,8.25-8.83a9.43,9.43,0,0,0,2.84-5.24,5.43,5.43,0,0,0-2-4.59,5.15,5.15,0,0,0-4.59-1.59,9.65,9.65,0,0,0-5,3.22L136.4,150Z"/><path class="cls-3" d="M170.57,96.14q5.9-6.3,11.89-7.11t11.61,4.43q6,5.55,5.48,12.23t-6.72,13.36l-14.64,15.68L143.45,102.3l7.46-8L162.33,105Zm15.89,17.8a9.89,9.89,0,0,0,3-6.3,7.6,7.6,0,0,0-2.8-6q-2.88-2.7-5.78-2.11a11.2,11.2,0,0,0-5.83,3.7l-6.77,7.25,11.41,10.66Zm23.84-13.59L175.56,67.91l7.46-8,34.74,32.43Z"/><path class="cls-3" d="M225.82,83.72,191.08,51.29l7.46-8,22.63,21.13L214,26.73l7.05-7.54,34.73,32.43-7.41,7.94L225.8,38.48l7.1,37.65Zm-22-50.54q-4.63,5-8.77,5.42a9.79,9.79,0,0,1-7.81-2.88l5.15-5.51a4.9,4.9,0,0,0,3.7,1.46,6.05,6.05,0,0,0,3.76-2.2,6,6,0,0,0,1.91-3.88A4.85,4.85,0,0,0,200.07,22l5.14-5.51a9.72,9.72,0,0,1,3.38,7.62Q208.4,28.27,203.81,33.18Z"/></svg>