<svg id="Layer_1" data-name="Layer 1" xmlns="http://www.w3.org/2000/svg" viewBox="0 0 383.23 398.41"><defs><style>.cls-1{fill:#b90c16;}.cls-2{fill:#fc2a3a;}.cls-3{fill:#fff;}</style></defs><polygon class="cls-1" points="37.84 388.79 37.84 227.36 0 227.36 0 355.69 37.84 388.79"/><polygon class="cls-1" points="369.88 37.85 208.45 37.85 208.45 0.01 336.79 0.01 369.88 37.85"/><polygon class="cls-2" points="0 355.69 0 218.85 199.61 0 336.79 0 0 355.69"/><path class="cls-3" d="M87,234.71,46.27,197.07l7.21-7.79L105,192.37l-3.49,3.78-29.31-27.1,8.6-9.31,40.71,37.64-7.16,7.74-51.56-3,3.49-3.78,29.31,27.1Z"/><path class="cls-3" d="M131.52,171.38,152,149.23l7.56,7-29.14,31.51-40.7-37.64,28.44-30.76,7.56,7-19.79,21.4Zm-17.39-14.79L132.25,137l7.32,6.77-18.12,19.6Z"/><path class="cls-3" d="M175,139.53l-53-24.32,9-9.77,46.75,21.76-4.51,4.89L148.38,86.66l8.07-8.73,46.8,21.71-4.36,4.71-25.08-45.2,8.34-9,28.39,51-9.36,10.12L160,92.25l2.48-2.67,21.84,39.83Z"/></svg>